<svg width="28" height="11" viewBox="0 0 28 11" fill="none" xmlns="http://www.w3.org/2000/svg">
<path d="M22.1073 1.03328C22.3366 0.804017 22.7083 0.804017 22.9376 1.03328L26.9003 4.99602C27.1296 5.22528 27.1296 5.59699 26.9003 5.82625C26.6711 6.05551 26.2993 6.05551 26.0701 5.82625L22.1073 1.86351C21.8781 1.63425 21.8781 1.26254 22.1073 1.03328Z" fill="white"/>
<path d="M22.1318 9.92378C21.9447 9.73666 21.9447 9.43327 22.1318 9.24614L26.2868 5.09114C26.4739 4.90401 26.7773 4.90401 26.9644 5.09114C27.1516 5.27826 27.1516 5.58165 26.9644 5.76877L22.8094 9.92378C22.6223 10.1109 22.3189 10.1109 22.1318 9.92378Z" fill="white"/>
<path d="M0 5.49902C0 5.22288 0.223858 4.99902 0.5 4.99902L26.5 4.99902C26.7761 4.99902 27 5.22288 27 5.49902C27 5.77517 26.7761 5.99902 26.5 5.99902L0.5 5.99902C0.223857 5.99902 0 5.77517 0 5.49902Z" fill="white"/>
</svg>
