<svg width="12" height="10" viewBox="0 0 12 10" fill="none" xmlns="http://www.w3.org/2000/svg">
<path fill-rule="evenodd" clip-rule="evenodd" d="M9.04377 4.80368L1.18575 4.80368C0.866313 4.80368 0.607355 5.06264 0.607355 5.38208C0.607355 5.70152 0.866313 5.96048 1.18575 5.96048L9.04377 5.96048L5.98236 9.02189C5.75648 9.24777 5.75648 9.61399 5.98236 9.83987C6.20824 10.0658 6.57447 10.0658 6.80034 9.83987L10.8491 5.79107C10.9046 5.73562 10.9464 5.6717 10.9747 5.60348C11.0029 5.53529 11.0186 5.46051 11.0186 5.38208C11.0186 5.30366 11.0029 5.22888 10.9747 5.16068C10.9469 5.09347 10.9058 5.03043 10.8516 4.97555C10.8508 4.97473 10.85 4.97391 10.8491 4.97309C10.8491 4.97304 10.849 4.97299 10.849 4.97294L6.80034 0.924292C6.57447 0.698413 6.20824 0.698413 5.98236 0.924292C5.75648 1.15017 5.75648 1.51639 5.98236 1.74227L9.04377 4.80368Z" fill="black"/>
</svg>
