<svg width="11" height="11" viewBox="0 0 11 11" fill="none" xmlns="http://www.w3.org/2000/svg">
<path d="M10.1317 0.213399C9.93783 0.105315 9.72458 0.0365805 9.50415 0.0111259C9.28372 -0.0143286 9.06045 0.00399599 8.8471 0.0650521C8.63375 0.126108 8.43451 0.228698 8.26076 0.366955C8.08702 0.505212 7.94218 0.676423 7.83454 0.870799L4.69872 6.52427L2.90405 4.72636C2.74824 4.56474 2.56186 4.43583 2.35578 4.34715C2.1497 4.25846 1.92806 4.21178 1.70378 4.20983C1.4795 4.20788 1.25708 4.25069 1.0495 4.33577C0.841912 4.42086 0.653321 4.5465 0.494727 4.70539C0.336132 4.86427 0.210711 5.0532 0.125782 5.26116C0.0408521 5.46911 -0.00188514 5.69194 6.37749e-05 5.91662C0.00201269 6.1413 0.0486087 6.36334 0.137133 6.56979C0.225657 6.77624 0.354336 6.96296 0.515663 7.11906L3.89387 10.5034C4.21311 10.824 4.64383 11 5.08806 11L5.322 10.9831C5.5809 10.9468 5.82786 10.8508 6.04343 10.7027C6.25901 10.5545 6.43732 10.3583 6.56434 10.1294L10.7871 2.51472C10.8949 2.32051 10.9635 2.10692 10.9889 1.88616C11.0143 1.66539 10.996 1.44178 10.9352 1.22808C10.8743 1.01438 10.7721 0.814779 10.6342 0.640679C10.4963 0.46658 10.3256 0.32139 10.1317 0.213399Z" fill="white"/>
</svg>
