<svg width="14" height="14" viewBox="0 0 14 14" fill="none" xmlns="http://www.w3.org/2000/svg">
<path fill-rule="evenodd" clip-rule="evenodd" d="M4.21967 4.21967C4.51256 3.92678 4.98744 3.92678 5.28033 4.21967L7 5.93934L8.71967 4.21967C9.01256 3.92678 9.48744 3.92678 9.78033 4.21967C10.0732 4.51256 10.0732 4.98744 9.78033 5.28033L8.06066 7L9.78033 8.71967C10.0732 9.01256 10.0732 9.48744 9.78033 9.78033C9.48744 10.0732 9.01256 10.0732 8.71967 9.78033L7 8.06066L5.28033 9.78033C4.98744 10.0732 4.51256 10.0732 4.21967 9.78033C3.92678 9.48744 3.92678 9.01256 4.21967 8.71967L5.93934 7L4.21967 5.28033C3.92678 4.98744 3.92678 4.51256 4.21967 4.21967Z" fill="black"/>
<path fill-rule="evenodd" clip-rule="evenodd" d="M7 1.5C3.96243 1.5 1.5 3.96243 1.5 7C1.5 10.0376 3.96243 12.5 7 12.5C10.0376 12.5 12.5 10.0376 12.5 7C12.5 3.96243 10.0376 1.5 7 1.5ZM0 7C0 3.13401 3.13401 0 7 0C10.866 0 14 3.13401 14 7C14 10.866 10.866 14 7 14C3.13401 14 0 10.866 0 7Z" fill="black"/>
</svg>
