<svg width="14" height="14" viewBox="0 0 14 14" fill="none" xmlns="http://www.w3.org/2000/svg">
<path fill-rule="evenodd" clip-rule="evenodd" d="M10.7803 4.21967C11.0732 4.51256 11.0732 4.98744 10.7803 5.28033L6.28033 9.78033C5.98744 10.0732 5.51256 10.0732 5.21967 9.78033L3.46967 8.03033C3.17678 7.73744 3.17678 7.26256 3.46967 6.96967C3.76256 6.67678 4.23744 6.67678 4.53033 6.96967L5.75 8.18934L9.71967 4.21967C10.0126 3.92678 10.4874 3.92678 10.7803 4.21967Z" fill="black"/>
<path fill-rule="evenodd" clip-rule="evenodd" d="M7 1.5C3.96243 1.5 1.5 3.96243 1.5 7C1.5 10.0376 3.96243 12.5 7 12.5C10.0376 12.5 12.5 10.0376 12.5 7C12.5 3.96243 10.0376 1.5 7 1.5ZM0 7C0 3.13401 3.13401 0 7 0C10.866 0 14 3.13401 14 7C14 10.866 10.866 14 7 14C3.13401 14 0 10.866 0 7Z" fill="black"/>
</svg>
