<svg width="24" height="23" viewBox="0 0 24 23" fill="none" xmlns="http://www.w3.org/2000/svg">
<path d="M22.1977 6.22266H1.80211C1.44201 6.22266 1.09665 6.36571 0.84202 6.62034C0.587387 6.87497 0.444336 7.22033 0.444336 7.58043V20.7538C0.444336 21.1139 0.587387 21.4592 0.84202 21.7139C1.09665 21.9685 1.44201 22.1115 1.80211 22.1115H22.1977C22.5578 22.1115 22.9031 21.9685 23.1578 21.7139C23.4124 21.4592 23.5554 21.1139 23.5554 20.7538V7.58043C23.5554 7.22033 23.4124 6.87497 23.1578 6.62034C22.9031 6.36571 22.5578 6.22266 22.1977 6.22266ZM22.111 20.6671H1.88878V7.6671H22.111V20.6671Z" fill="black"/>
<path d="M5.18229 13.0472C5.61082 13.0472 6.02972 12.9201 6.38603 12.6821C6.74233 12.444 7.02004 12.1056 7.18403 11.7097C7.34802 11.3138 7.39093 10.8781 7.30733 10.4578C7.22372 10.0375 7.01737 9.65148 6.71436 9.34847C6.41134 9.04546 6.02528 8.8391 5.60499 8.7555C5.1847 8.6719 4.74905 8.71481 4.35314 8.8788C3.95724 9.04279 3.61885 9.32049 3.38077 9.6768C3.1427 10.0331 3.01562 10.452 3.01562 10.8805C3.01562 11.4552 3.2439 12.0063 3.65023 12.4126C4.05656 12.8189 4.60766 13.0472 5.18229 13.0472ZM5.18229 9.72498C5.41198 9.71924 5.63817 9.78209 5.83196 9.90553C6.02576 10.029 6.17835 10.2074 6.27026 10.4179C6.36217 10.6285 6.38921 10.8617 6.34794 11.0877C6.30667 11.3138 6.19896 11.5224 6.03856 11.6869C5.87816 11.8514 5.67236 11.9643 5.44746 12.0113C5.22255 12.0583 4.98874 12.0372 4.7759 11.9506C4.56306 11.8641 4.38086 11.716 4.25256 11.5254C4.12426 11.3348 4.0557 11.1103 4.05563 10.8805C4.05553 10.579 4.1733 10.2894 4.3838 10.0735C4.5943 9.85758 4.88085 9.73252 5.18229 9.72498Z" fill="black"/>
<path d="M4.70539 19.222L9.03872 14.8886L11.3354 17.1853L9.29872 19.222H10.7432L16.1309 13.8342L20.6665 18.3336V16.8892L16.4776 12.722C16.3816 12.6267 16.2518 12.5732 16.1165 12.5732C15.9812 12.5732 15.8514 12.6267 15.7554 12.722L12.0287 16.4486L9.37817 13.8053C9.28213 13.71 9.15233 13.6566 9.01706 13.6566C8.88178 13.6566 8.75199 13.71 8.65595 13.8053L3.27539 19.222H4.70539Z" fill="black"/>
<path d="M20.7679 1.16656C20.7679 0.975013 20.6918 0.791313 20.5564 0.65587C20.4209 0.520427 20.2372 0.444336 20.0457 0.444336H4.15679C3.96525 0.444336 3.78155 0.520427 3.6461 0.65587C3.51066 0.791313 3.43457 0.975013 3.43457 1.16656V1.88878H20.7679V1.16656Z" fill="black"/>
<path d="M22.1978 4.05523C22.1978 3.86368 22.1217 3.67998 21.9863 3.54454C21.8508 3.4091 21.6671 3.33301 21.4756 3.33301H2.69781C2.50626 3.33301 2.32256 3.4091 2.18712 3.54454C2.05168 3.67998 1.97559 3.86368 1.97559 4.05523V4.77745H22.1978V4.05523Z" fill="black"/>
</svg>
