<svg width="18" height="22" viewBox="0 0 18 22" fill="none" xmlns="http://www.w3.org/2000/svg">
<path d="M16.5834 19.6669H1.41674C1.12943 19.6669 0.853876 19.7811 0.650712 19.9842C0.447547 20.1874 0.333411 20.4629 0.333411 20.7503C0.333411 21.0376 0.447547 21.3131 0.650712 21.5163C0.853876 21.7195 1.12943 21.8336 1.41674 21.8336H16.5834C16.8707 21.8336 17.1463 21.7195 17.3494 21.5163C17.5526 21.3131 17.6667 21.0376 17.6667 20.7503C17.6667 20.4629 17.5526 20.1874 17.3494 19.9842C17.1463 19.7811 16.8707 19.6669 16.5834 19.6669ZM1.41674 17.5003H1.51424L6.03174 17.0886C6.52661 17.0393 6.98945 16.8213 7.34258 16.4711L17.0926 6.72109C17.471 6.3213 17.6755 5.7878 17.6613 5.2375C17.6471 4.6872 17.4153 4.16497 17.0167 3.78525L14.0484 0.81692C13.661 0.453024 13.1533 0.244225 12.622 0.230243C12.0907 0.21626 11.5728 0.39807 11.1667 0.741086L1.41674 10.4911C1.06657 10.8442 0.84854 11.3071 0.799244 11.8019L0.333411 16.3194C0.318817 16.4781 0.339406 16.638 0.39371 16.7878C0.448014 16.9376 0.534696 17.0736 0.647577 17.1861C0.748804 17.2865 0.868855 17.3659 1.00085 17.4198C1.13284 17.4738 1.27417 17.5011 1.41674 17.5003ZM12.5426 2.33359L15.5001 5.29109L13.3334 7.40359L10.4301 4.50025L12.5426 2.33359ZM2.90091 11.9861L9.00008 5.93025L11.9251 8.85525L5.85841 14.9219L2.60841 15.2253L2.90091 11.9861Z" fill="black"/>
</svg>
