<svg width="17" height="17" viewBox="0 0 17 17" fill="none" xmlns="http://www.w3.org/2000/svg">
<path fill-rule="evenodd" clip-rule="evenodd" d="M7.75008 1.16699C6.00407 1.16699 4.32958 1.86059 3.09496 3.09521C1.86035 4.32982 1.16675 6.00432 1.16675 7.75033C1.16675 9.49633 1.86035 11.1708 3.09496 12.4054C4.32958 13.6401 6.00407 14.3337 7.75008 14.3337C9.49045 14.3337 11.1598 13.6445 12.3932 12.4174C12.3982 12.412 12.4033 12.4067 12.4085 12.4015C12.4134 12.3966 12.4183 12.3919 12.4233 12.3873C13.6466 11.1544 14.3334 9.48778 14.3334 7.75033C14.3334 6.00432 13.6398 4.32982 12.4052 3.09521C11.1706 1.86059 9.49609 1.16699 7.75008 1.16699ZM13.457 12.7441C14.6629 11.3661 15.3334 9.59279 15.3334 7.75033C15.3334 5.7391 14.5345 3.81025 13.1123 2.3881C11.6902 0.965948 9.76131 0.166992 7.75008 0.166992C5.73886 0.166992 3.81001 0.965948 2.38786 2.3881C0.965704 3.81025 0.166748 5.7391 0.166748 7.75033C0.166748 9.76155 0.965704 11.6904 2.38786 13.1126C3.81001 14.5347 5.73886 15.3337 7.75008 15.3337C9.59543 15.3337 11.3714 14.6611 12.7503 13.4516L16.1462 16.8536C16.3413 17.049 16.6579 17.0493 16.8533 16.8542C17.0488 16.6591 17.049 16.3425 16.8539 16.1471L13.457 12.7441Z" fill="black"/>
</svg>
