<svg width="12" height="12" viewBox="0 0 12 12" fill="none" xmlns="http://www.w3.org/2000/svg">
<path d="M11.3434 0.242147L5.02589 6.58298C4.95347 6.54102 4.87731 6.50587 4.79839 6.47798L0.627557 5.06631C0.501425 5.0347 0.389471 4.96185 0.309477 4.85934C0.229483 4.75682 0.186035 4.63051 0.186035 4.50048C0.186035 4.37045 0.229483 4.24414 0.309477 4.14163C0.389471 4.03911 0.501425 3.96626 0.627557 3.93465L10.9759 0.253814C11.0435 0.230845 11.1145 0.219024 11.1859 0.218814C11.2393 0.217953 11.2925 0.225835 11.3434 0.242147Z" fill="#84829A"/>
<path d="M11.7461 1.02375L8.06528 11.3838C8.02469 11.5045 7.94569 11.6086 7.84036 11.6803C7.73503 11.7519 7.60915 11.7871 7.48194 11.7804C7.35327 11.7863 7.22627 11.7494 7.12074 11.6756C7.01522 11.6017 6.93712 11.495 6.89861 11.3721L5.51027 7.20125C5.48238 7.12233 5.44723 7.04617 5.40527 6.97375L11.7578 0.65625C11.7936 0.776805 11.7895 0.905711 11.7461 1.02375Z" fill="#84829A"/>
</svg>
