<svg width="20" height="18" viewBox="0 0 20 18" fill="none" xmlns="http://www.w3.org/2000/svg">
<path d="M19.9989 9.62078C19.9837 9.13233 19.7774 8.66934 19.4244 8.33141L12.1706 1.26489C12.0618 1.15635 11.9326 1.07036 11.7905 1.01183C11.6484 0.953305 11.4961 0.923401 11.3425 0.923833H10.0479L18.5539 9.22852L18.5575 9.23196C18.676 9.34438 18.7456 9.49898 18.751 9.66229C18.7564 9.82559 18.6973 9.98446 18.5864 10.1045L12.477 16.8762L13.3346 17.7104L19.5095 10.9473C19.8404 10.5865 20.0162 10.11 19.9989 9.62078Z" fill="black"/>
<path d="M16.6758 10.061C16.7354 9.89692 16.7479 9.71939 16.7118 9.54857C16.6756 9.37775 16.5924 9.22046 16.4714 9.09454C16.4673 9.0902 16.4636 9.08551 16.4595 9.08125L8.76199 1.25457L8.75832 1.2509C8.64252 1.13446 8.50477 1.04214 8.35304 0.979298C8.20132 0.916451 8.03864 0.884322 7.87441 0.88477H2.35133C1.89364 0.885287 1.45484 1.06733 1.1312 1.39097C0.807563 1.71461 0.625517 2.15341 0.625 2.6111V8.12282C0.625279 8.29309 0.660211 8.46152 0.727669 8.61786C0.795126 8.7742 0.893698 8.91517 1.01738 9.03219L9.23301 16.8525L9.23602 16.8554C9.40923 17.0191 9.63866 17.1101 9.87699 17.1096C9.88863 17.1096 9.90035 17.1094 9.91215 17.1089C10.0017 17.1057 10.0904 17.0897 10.1755 17.0614C10.3258 17.0113 10.4609 16.9237 10.5679 16.8068L16.4837 10.3763C16.568 10.285 16.6333 10.1778 16.6758 10.061ZM9.86328 15.7266L1.87801 8.12551L1.875 8.1227V2.6111C1.87514 2.48481 1.92538 2.36374 2.01467 2.27444C2.10397 2.18515 2.22504 2.13491 2.35133 2.13477H7.87438L15.3627 9.74875L9.86328 15.7266Z" fill="black"/>
<path d="M5.46875 3.375C5.06701 3.375 4.67429 3.49413 4.34025 3.71733C4.00621 3.94052 3.74586 4.25776 3.59212 4.62892C3.43838 5.00009 3.39815 5.4085 3.47653 5.80253C3.55491 6.19655 3.74836 6.55849 4.03244 6.84256C4.31652 7.12664 4.67845 7.32009 5.07247 7.39847C5.4665 7.47685 5.87491 7.43662 6.24608 7.28288C6.61724 7.12914 6.93448 6.86879 7.15767 6.53475C7.38087 6.20071 7.5 5.80799 7.5 5.40625C7.49939 4.86772 7.28519 4.35141 6.90439 3.97061C6.52359 3.58981 6.00728 3.37561 5.46875 3.375ZM5.46875 6.1875C5.31423 6.1875 5.16319 6.14168 5.03471 6.05584C4.90624 5.96999 4.8061 5.84798 4.74697 5.70522C4.68784 5.56247 4.67237 5.40538 4.70251 5.25384C4.73266 5.10229 4.80706 4.96308 4.91632 4.85382C5.02558 4.74456 5.16479 4.67016 5.31634 4.64001C5.46788 4.60987 5.62497 4.62534 5.76772 4.68447C5.91048 4.7436 6.03249 4.84373 6.11834 4.97221C6.20418 5.10069 6.25 5.25173 6.25 5.40625C6.24976 5.61338 6.16738 5.81195 6.02092 5.95841C5.87445 6.10488 5.67588 6.18726 5.46875 6.1875Z" fill="black"/>
</svg>
