<svg width="26" height="24" viewBox="0 0 26 24" fill="none" xmlns="http://www.w3.org/2000/svg">
<path d="M0.8125 15.0879C1.02799 15.0879 1.23465 15.1735 1.38702 15.3259C1.5394 15.4782 1.625 15.6849 1.625 15.9004V19.9629C1.625 20.3939 1.7962 20.8072 2.10095 21.1119C2.4057 21.4167 2.81902 21.5879 3.25 21.5879H22.75C23.181 21.5879 23.5943 21.4167 23.899 21.1119C24.2038 20.8072 24.375 20.3939 24.375 19.9629V15.9004C24.375 15.6849 24.4606 15.4782 24.613 15.3259C24.7653 15.1735 24.972 15.0879 25.1875 15.0879C25.403 15.0879 25.6097 15.1735 25.762 15.3259C25.9144 15.4782 26 15.6849 26 15.9004V19.9629C26 20.8248 25.6576 21.6515 25.0481 22.261C24.4386 22.8705 23.612 23.2129 22.75 23.2129H3.25C2.38805 23.2129 1.5614 22.8705 0.951903 22.261C0.34241 21.6515 0 20.8248 0 19.9629V15.9004C0 15.6849 0.0856024 15.4782 0.237976 15.3259C0.390349 15.1735 0.597012 15.0879 0.8125 15.0879Z" fill="black"/>
<path d="M12.4248 0.862726C12.5003 0.787061 12.5899 0.727028 12.6886 0.686068C12.7874 0.645107 12.8932 0.624023 13.0001 0.624023C13.1069 0.624023 13.2127 0.645107 13.3115 0.686068C13.4102 0.727028 13.4998 0.787061 13.5753 0.862726L18.4503 5.73773C18.6029 5.89029 18.6886 6.09722 18.6886 6.31298C18.6886 6.52874 18.6029 6.73566 18.4503 6.88823C18.2977 7.04079 18.0908 7.1265 17.8751 7.1265C17.6593 7.1265 17.4524 7.04079 17.2998 6.88823L13.8126 3.39935V17.688C13.8126 17.9035 13.7269 18.1101 13.5746 18.2625C13.4222 18.4149 13.2155 18.5005 13.0001 18.5005C12.7846 18.5005 12.5779 18.4149 12.4255 18.2625C12.2732 18.1101 12.1876 17.9035 12.1876 17.688V3.39935L8.7003 6.88823C8.62476 6.96377 8.53508 7.02369 8.43637 7.06458C8.33767 7.10546 8.23188 7.1265 8.12505 7.1265C8.01822 7.1265 7.91243 7.10546 7.81373 7.06458C7.71503 7.02369 7.62534 6.96377 7.5498 6.88823C7.47426 6.81268 7.41433 6.723 7.37345 6.6243C7.33257 6.5256 7.31152 6.41981 7.31152 6.31298C7.31152 6.20614 7.33257 6.10035 7.37345 6.00165C7.41433 5.90295 7.47426 5.81327 7.5498 5.73773L12.4248 0.862726Z" fill="black"/>
</svg>
