<svg width="126" height="53" viewBox="0 0 126 53" fill="none" xmlns="http://www.w3.org/2000/svg">
<path d="M87.9365 26V24.324L90.6244 23.6916V3.58H87.9365V1.90403L92.996 0.702393H95.4942V23.6916L98.1821 24.324V26H87.9365Z" fill="white"/>
<path d="M71.3374 17.9047C71.3374 15.4171 72.0331 13.4355 73.4245 11.9598C74.8369 10.463 76.7448 9.7146 79.148 9.7146C81.5935 9.7146 83.4381 10.5473 84.6819 12.2127C85.9468 13.8782 86.5792 15.9336 86.5792 18.379H76.2072C76.3548 19.9391 76.9134 21.2883 77.8832 22.4267C78.8529 23.544 80.0967 24.1026 81.6146 24.1026C82.7529 24.1026 83.9757 23.8602 85.2827 23.3753L85.9468 25.1778C83.9862 26.0421 82.0678 26.4743 80.1916 26.4743C77.4721 26.4743 75.3112 25.6837 73.7091 24.1026C72.128 22.5004 71.3374 20.4345 71.3374 17.9047ZM76.2072 16.4185L81.5513 16.0706C81.5513 15.5647 81.5197 15.1009 81.4565 14.6793C81.3932 14.2366 81.214 13.7095 80.9189 13.0982C80.3918 12.2127 79.7699 11.77 79.0532 11.77C78.2099 11.77 77.5142 12.2022 76.9661 13.0665C76.6499 13.5936 76.4391 14.1733 76.3337 14.8057C76.2283 15.4382 76.1861 15.9758 76.2072 16.4185Z" fill="white"/>
<path d="M52.1934 11.8649V10.189H61.8697V11.8649L59.7194 12.3709L62.9132 19.9285L66.0438 12.4025L63.9568 11.8649V10.189H70.8187V11.8649L68.1625 12.5606L62.5338 26.2213H60.3202L54.4701 12.529L52.1934 11.8649Z" fill="white"/>
<path d="M35.6973 22.0788C35.6973 20.2447 36.4457 18.8534 37.9424 17.9047C39.4603 16.935 41.9057 16.4501 45.2787 16.4501V15.5014C45.2787 14.869 45.2682 14.4157 45.2471 14.1417C45.2471 13.8465 45.205 13.4987 45.1206 13.0982C45.0363 12.6976 44.9098 12.413 44.7412 12.2444C44.5936 12.0757 44.3617 11.9281 44.0455 11.8017C43.7293 11.6541 43.3393 11.5803 42.8755 11.5803L38.8595 15.0587C37.4259 14.2365 36.7092 12.9611 36.7092 11.2325L37.6578 10.8214C38.0584 10.6527 38.8384 10.4314 39.9979 10.1573C41.1573 9.86217 42.2852 9.7146 43.3814 9.7146C47.9139 9.7146 50.1802 11.5276 50.1802 15.1536V23.6283H52.6467V24.988C52.5413 25.0934 52.3937 25.2305 52.204 25.3991C52.0142 25.5678 51.6031 25.7891 50.9707 26.0632C50.3383 26.3372 49.6847 26.4743 49.0101 26.4743C47.408 26.4743 46.2169 25.9367 45.4368 24.8616C44.0244 25.9367 42.4855 26.4743 40.82 26.4743C39.3654 26.4743 38.1427 26.1054 37.1519 25.3675C36.1821 24.6297 35.6973 23.5334 35.6973 22.0788ZM40.7884 21.7942C40.7884 22.4056 40.9887 22.8904 41.3892 23.2488C41.8109 23.6072 42.3168 23.7864 42.9071 23.7864C43.8557 23.7864 44.6463 23.4386 45.2787 22.7429V18.4107C44.0982 18.4107 43.0547 18.7269 42.1482 19.3593C41.2417 19.9707 40.7884 20.7823 40.7884 21.7942Z" fill="white"/>
<path d="M20.936 25.9999V24.324L23.6239 23.6915V13.0665H20.936V11.3906L25.9956 10.1889H28.4937V12.0863C30.0748 10.5051 31.951 9.7146 34.1224 9.7146C34.2489 10.1151 34.3122 10.5579 34.3122 11.0427C34.3122 12.0125 34.2067 12.919 33.9959 13.7622L30.0116 13.0982C29.5056 13.3301 28.9997 13.6674 28.4937 14.1101V23.6915L31.814 24.324V25.9999H20.936Z" fill="white"/>
<path d="M0.0546875 10.5684V3.8645H19.5022V10.5684H17.5733L16.2768 6.2994H12.3557V23.5334L15.2649 24.2291V25.9999H4.29204V24.2291L7.20127 23.5334V6.2994H3.24851L1.95201 10.5684H0.0546875Z" fill="white"/>
<g clip-path="url(#clip0_0_1003)">
<path d="M26.9998 36.123C32.5769 44.1055 56.8412 52.0512 73.1619 51.5525C90.8029 51.0535 100.463 47.5629 119.271 34.7275C119.216 36.1328 119.051 37.2765 119.077 38.3197C119.058 39.5099 119.05 40.7683 119.301 41.9154C119.356 42.256 120.063 42.7721 120.481 42.7756C120.898 42.779 121.5 42.1945 121.581 41.8324C122.282 38.3691 122.847 34.9274 123.469 31.4067C123.634 30.263 123.098 29.5103 121.891 29.3529C117.313 28.9632 112.723 28.5055 108.087 28.1947C107.038 28.1519 105.861 28.6183 104.506 28.8337C106.055 31.5902 108.441 30.8619 110.323 31.331C112.283 31.8576 114.324 32.022 116.826 32.4623C111.807 37.1707 106.492 40.4595 100.698 42.9166C79.4894 52.0134 58.4195 50.6132 37.6745 41.2004C34.9747 39.9535 32.4349 38.4018 29.792 37.0759C28.9923 36.8539 28.2603 36.621 26.9998 36.123Z" fill="#DF6951"/>
</g>
<defs>
<clipPath id="clip0_0_1003">
<rect width="96.1304" height="23.346" fill="white" transform="matrix(0.987606 -0.156951 -0.156951 -0.987606 30.6641 59.1797)"/>
</clipPath>
</defs>
</svg>
